<svg xmlns="http://www.w3.org/2000/svg" xmlns:xlink="http://www.w3.org/1999/xlink" viewBox="0 0 287.26 48.25"><defs><style>.cls-1,.cls-4{fill:none;}.cls-2{fill:#fff;}.cls-3{clip-path:url(#clip-path);}.cls-4{stroke:#000;stroke-width:1.75px;}</style><clipPath id="clip-path" transform="translate(-0.85 -16.61)"><rect class="cls-1" width="395.67" height="73.19"/></clipPath></defs><title>Asset 1</title><g id="Layer_2" data-name="Layer 2"><g id="Layer_1-2" data-name="Layer 1"><rect class="cls-2" x="0.88" y="0.88" width="46.2" height="46.2"/><g class="cls-3"><rect class="cls-4" x="0.88" y="0.88" width="46.2" height="46.2"/></g><polyline class="cls-2" points="7.8 17.92 7.8 38.42 7.8 40.15 9.52 40.15 38.42 40.15 40.15 40.15 40.15 38.42 40.15 9.52 40.15 7.8 38.42 7.8 18.36 7.8"/><polyline class="cls-4" points="7.8 17.92 7.8 38.42 7.8 40.15 9.52 40.15 38.42 40.15 40.15 40.15 40.15 38.42 40.15 9.52 40.15 7.8 38.42 7.8 18.36 7.8"/><path d="M61,37.4c-3.14,0-5.11-1.91-5.11-7.52,0-5.37,2-7.52,5.11-7.52s5.11,1.91,5.11,7.52C66.11,35.25,64.16,37.4,61,37.4Zm0-12.46c-1.39,0-1.93,1.11-1.93,4.94s.56,4.94,1.93,4.94,1.93-1.11,1.93-4.94S62.36,24.94,61,24.94Z" transform="translate(-0.85 -16.61)"/><path d="M71.76,37.4a3.61,3.61,0,0,1-1.17-.22v4.46H67.82V26a20,20,0,0,1,2.77-.19v.82h.13a2.49,2.49,0,0,1,2-1c1.78,0,3.23,1.32,3.23,5.7S74.08,37.4,71.76,37.4Zm-.09-9.25a1.92,1.92,0,0,0-1.08.41v6.2a1.77,1.77,0,0,0,.91.24c1.13,0,1.56-.93,1.56-3.64S72.59,28.14,71.68,28.14Z" transform="translate(-0.85 -16.61)"/><path d="M84.79,32.26H79.93v.19c0,1.65.54,2.38,1.8,2.38A4.47,4.47,0,0,0,84.22,34a18.56,18.56,0,0,1,.5,2.58,6.24,6.24,0,0,1-3.06.8c-2.95,0-4.64-1.65-4.64-5.81s1.78-5.94,4.1-5.94,3.71,1.47,3.71,4.83C84.83,31,84.81,31.68,84.79,32.26Zm-3.66-4.55c-.78,0-1.15.67-1.17,2.77h2.17c0-.26,0-.48,0-.69C82.14,28.38,81.93,27.71,81.12,27.71Z" transform="translate(-0.85 -16.61)"/><path d="M91.74,37.18V29.47c0-.89-.22-1.26-.93-1.26a2.16,2.16,0,0,0-1.37.5v8.47H86.67V26a22.88,22.88,0,0,1,2.77-.17v.93h.13a2.85,2.85,0,0,1,2.34-1.11c1.56,0,2.6,1,2.6,3.51v8Z" transform="translate(-0.85 -16.61)"/><path d="M107.1,37.4a7.26,7.26,0,0,1-3.21-.69,16,16,0,0,1,.5-2.58,5.42,5.42,0,0,0,2.62.74,1.41,1.41,0,0,0,1.52-1.58c0-2.4-4.59-2.34-4.59-6.52,0-2.86,1.91-4.4,4.55-4.4a9.27,9.27,0,0,1,2.58.35,15.59,15.59,0,0,1-.28,2.58,8.38,8.38,0,0,0-2.36-.39c-1,0-1.47.56-1.47,1.56,0,2.23,4.59,2.32,4.59,6.5A4.17,4.17,0,0,1,107.1,37.4Z" transform="translate(-0.85 -16.61)"/><path d="M118.11,41.64v-5.2H118a2.36,2.36,0,0,1-2,1c-1.84,0-3.25-1.43-3.25-5.7,0-4.42,1.82-6,4.55-6a8,8,0,0,1,3.62.91V41.64Zm0-13.37a2,2,0,0,0-.89-.2c-1.1,0-1.56.85-1.56,3.62s.46,3.23,1.41,3.23a1.58,1.58,0,0,0,1-.41Z" transform="translate(-0.85 -16.61)"/><path d="M128.21,37.18v-.82h-.11a2.94,2.94,0,0,1-2.36,1c-1.54,0-2.6-1-2.6-3.49V26a22,22,0,0,1,2.79-.17v7.8c0,.89.2,1.26.91,1.26a2.16,2.16,0,0,0,1.37-.5V26A21.61,21.61,0,0,1,131,25.8V37.18Z" transform="translate(-0.85 -16.61)"/><path d="M139.5,37.4a1.83,1.83,0,0,1-1.82-1h-.11a3.05,3.05,0,0,1-2.28,1c-1.56,0-2.66-1-2.66-3.32s1.13-3.21,3.25-3.34l1.34-.09v-2a3,3,0,0,0-1.52-.37,4,4,0,0,0-2,.5,12.75,12.75,0,0,1-.33-2.62,6.9,6.9,0,0,1,2.62-.48,5.79,5.79,0,0,1,3.9,1.26v7.3c0,.35.11.45.41.45h.76v.89C141.06,36.77,140.52,37.4,139.5,37.4Zm-2.27-5-1,.09c-.67.06-1,.37-1,1.49s.32,1.32.91,1.32a1.85,1.85,0,0,0,1-.35Z" transform="translate(-0.85 -16.61)"/><path d="M147.69,28.73a3.22,3.22,0,0,0-.93-.15,2.42,2.42,0,0,0-1.6.56v8h-2.77V26a22.77,22.77,0,0,1,2.77-.19V27h.13c.78-1.17,1.34-1.34,1.91-1.34a2.05,2.05,0,0,1,.69.13A28,28,0,0,1,147.69,28.73Z" transform="translate(-0.85 -16.61)"/><path d="M156.47,32.26h-4.85v.19c0,1.65.54,2.38,1.8,2.38A4.47,4.47,0,0,0,155.9,34a18.62,18.62,0,0,1,.5,2.58,6.24,6.24,0,0,1-3.06.8c-2.95,0-4.64-1.65-4.64-5.81s1.78-5.94,4.1-5.94,3.71,1.47,3.71,4.83C156.51,31,156.49,31.68,156.47,32.26Zm-3.66-4.55c-.78,0-1.15.67-1.17,2.77h2.17c0-.26,0-.48,0-.69C153.82,28.38,153.61,27.71,152.8,27.71Z" transform="translate(-0.85 -16.61)"/><path d="M63.59,60.29,60.34,53.2l-1.56,2.4v4.57H57.07V45.58h1.71v7.65h.11c.5-1,1.15-2.32,1.71-3.23l2.86-4.53a6.92,6.92,0,0,1,1.78.24L61.4,51.56c1.32,2.67,2.56,5.35,3.94,8.52A7.08,7.08,0,0,1,63.59,60.29Z" transform="translate(-0.85 -16.61)"/><path d="M72.52,60.18V52c0-1.24-.39-1.82-1.45-1.82a3.66,3.66,0,0,0-2.23.87v9.16H67.28V49a9.25,9.25,0,0,1,1.56-.13v1h.09a3.44,3.44,0,0,1,2.6-1.15c1.39,0,2.56.74,2.56,3.32v8.21Z" transform="translate(-0.85 -16.61)"/><path d="M80.11,60.4c-2.32,0-3.77-1.45-3.77-5.87s1.63-5.87,3.81-5.87c2.34,0,3.77,1.47,3.77,5.87S82.29,60.4,80.11,60.4Zm0-10.31c-1.41,0-2.15,1-2.15,4.44S78.7,59,80.11,59s2.14-1,2.14-4.44S81.56,50.08,80.15,50.08Z" transform="translate(-0.85 -16.61)"/><path d="M95.14,60.18H93.45l-1.84-7.89a10,10,0,0,1-.22-1.56h-.11A13.34,13.34,0,0,1,91,52.29l-1.82,7.89H87.52C86.71,56.5,86,52.64,85.46,49A9.46,9.46,0,0,1,87,48.81l1.19,7.6c.07.46.13,1.11.15,1.65h.13a11.94,11.94,0,0,1,.26-1.65l1.75-7.54h1.78L94,56.41a11.37,11.37,0,0,1,.26,1.65h.11c0-.54.11-1.21.17-1.65l1.17-7.6a8.1,8.1,0,0,1,1.5.15C96.64,52.64,95.94,56.5,95.14,60.18Z" transform="translate(-0.85 -16.61)"/><path d="M99.5,60.18v-16a8.83,8.83,0,0,1,1.56-.15V60.18Z" transform="translate(-0.85 -16.61)"/><path d="M110.2,54.79h-5.14v.15c0,2.75.72,3.92,2.45,3.92a3.85,3.85,0,0,0,2.23-.72,8.31,8.31,0,0,1,.33,1.5,4.49,4.49,0,0,1-2.56.76c-2.62,0-4.12-1.45-4.12-5.72,0-4.62,1.67-6,3.64-6s3.21,1.21,3.21,4.46C110.25,53.59,110.23,54.27,110.2,54.79ZM107,50c-1.21,0-1.89,1-2,3.58h3.58c0-.3,0-.5,0-.72C108.69,50.82,108.19,50,107,50Z" transform="translate(-0.85 -16.61)"/><path d="M117.57,60.18v-.82h-.09a2.75,2.75,0,0,1-2.28,1C113.3,60.4,112,59,112,54.7c0-4.68,1.75-6,4-6a3.7,3.7,0,0,1,1.6.37V44.21a9.26,9.26,0,0,1,1.56-.15V60.18Zm0-9.66a3,3,0,0,0-1.5-.41c-1.54,0-2.43.93-2.43,4.59,0,3.31.65,4.2,2,4.2a2.7,2.7,0,0,0,1.88-.76Z" transform="translate(-0.85 -16.61)"/><path d="M125.11,64.86c-2.51,0-3.64-1.11-3.64-2.88a3.51,3.51,0,0,1,1.08-2.49,4.21,4.21,0,0,1-.67-1.52A14.12,14.12,0,0,1,123,55.65a3.72,3.72,0,0,1-1.17-3.14c0-2.43,1.21-3.86,3.14-3.86a4.59,4.59,0,0,1,1.34.22h2.6a8,8,0,0,1-.11,1.26l-1.23.11v.09a3.64,3.64,0,0,1,.61,2.19c0,2.67-1.43,3.81-3.08,3.81a3.22,3.22,0,0,1-1.06-.15,4.6,4.6,0,0,0-.63,1.6c0,.46.24.58.61.58h2.32c1.56,0,2.75.71,2.75,2.84C129.12,63.52,127.67,64.86,125.11,64.86Zm1.11-4.94h-2.64a2.78,2.78,0,0,0-.61,1.69c0,1.32.67,1.82,2.19,1.82s2.43-.56,2.43-2.12C127.58,60.16,127.08,59.92,126.22,59.92ZM125,50c-1,0-1.58.61-1.58,2.51S124,55,125,55s1.6-.52,1.6-2.47S126,50,125,50Z" transform="translate(-0.85 -16.61)"/><path d="M137.2,54.79h-5.14v.15c0,2.75.72,3.92,2.45,3.92a3.85,3.85,0,0,0,2.23-.72,8.32,8.32,0,0,1,.33,1.5,4.49,4.49,0,0,1-2.56.76c-2.62,0-4.12-1.45-4.12-5.72,0-4.62,1.67-6,3.64-6s3.21,1.21,3.21,4.46C137.25,53.59,137.22,54.27,137.2,54.79ZM134,50c-1.21,0-1.89,1-2,3.58h3.58c0-.3,0-.5,0-.72C135.69,50.82,135.19,50,134,50Z" transform="translate(-0.85 -16.61)"/><path d="M152.41,60.18h-1.69l-1.84-7.89a10,10,0,0,1-.22-1.56h-.11a13.34,13.34,0,0,1-.24,1.56l-1.82,7.89h-1.71c-.8-3.68-1.5-7.54-2.06-11.22a9.46,9.46,0,0,1,1.54-.15l1.19,7.6c.07.46.13,1.11.15,1.65h.13a11.94,11.94,0,0,1,.26-1.65l1.75-7.54h1.78l1.73,7.54a11.37,11.37,0,0,1,.26,1.65h.11c0-.54.11-1.21.17-1.65l1.17-7.6a8.1,8.1,0,0,1,1.5.15C153.91,52.64,153.22,56.5,152.41,60.18Z" transform="translate(-0.85 -16.61)"/><path d="M157.55,46.77a.94.94,0,0,1-1-1.06c0-.61.28-1.13,1-1.13s.93.52.93,1.13S158.24,46.77,157.55,46.77Zm-.78,13.41V48.87h1.56V60.18Z" transform="translate(-0.85 -16.61)"/><path d="M164.27,60.4c-1.71,0-2.62-.78-2.62-3.29V50.28h-1.08V48.87h1.08V46.42a5.91,5.91,0,0,1,1.56-.3v2.75h2.17a10.29,10.29,0,0,1-.11,1.41h-2.06V57.1c0,1.28.35,1.76,1.17,1.76a2.73,2.73,0,0,0,1.26-.35,10.06,10.06,0,0,1,.2,1.47A3.41,3.41,0,0,1,164.27,60.4Z" transform="translate(-0.85 -16.61)"/><path d="M172.78,60.18V52c0-1.24-.39-1.82-1.45-1.82a3.66,3.66,0,0,0-2.23.87v9.16h-1.56v-16a9.26,9.26,0,0,1,1.56-.15V49.8h.09a3.44,3.44,0,0,1,2.6-1.15c1.39,0,2.56.74,2.56,3.32v8.21Z" transform="translate(-0.85 -16.61)"/><path d="M180.37,60.4c-2.32,0-3.77-1.45-3.77-5.87s1.63-5.87,3.81-5.87c2.34,0,3.77,1.47,3.77,5.87S182.56,60.4,180.37,60.4Zm0-10.31c-1.41,0-2.15,1-2.15,4.44S179,59,180.37,59s2.14-1,2.14-4.44S181.82,50.08,180.41,50.08Z" transform="translate(-0.85 -16.61)"/><path d="M191.68,60.18v-.93h-.09A3.4,3.4,0,0,1,189,60.4c-1.41,0-2.56-.74-2.56-3.32V48.94a11.28,11.28,0,0,1,1.56-.13v8.28c0,1.24.37,1.82,1.43,1.82a3.66,3.66,0,0,0,2.23-.87v-9.1a11.29,11.29,0,0,1,1.56-.13V60.18Z" transform="translate(-0.85 -16.61)"/><path d="M199.18,60.4c-1.71,0-2.62-.78-2.62-3.29V50.28h-1.08V48.87h1.08V46.42a5.91,5.91,0,0,1,1.56-.3v2.75h2.17a10.21,10.21,0,0,1-.11,1.41h-2.06V57.1c0,1.28.35,1.76,1.17,1.76a2.73,2.73,0,0,0,1.26-.35,10.15,10.15,0,0,1,.19,1.47A3.41,3.41,0,0,1,199.18,60.4Z" transform="translate(-0.85 -16.61)"/><path d="M209.6,60.38a20,20,0,0,1-3.16-.3V45.73a19.9,19.9,0,0,1,3.08-.3c2.49,0,4.16,1.08,4.16,3.79a3.52,3.52,0,0,1-1.73,3.25v.15a3.4,3.4,0,0,1,2,3.44C214,59.16,212.07,60.38,209.6,60.38Zm.09-13.56a14.32,14.32,0,0,0-1.58.11V52h1.82c1.21,0,2-1,2-2.69S211.12,46.81,209.68,46.81Zm.24,6.57H208.1v5.46a14.94,14.94,0,0,0,1.5.11c1.75,0,2.56-1.06,2.56-3C212.16,54.31,211.31,53.38,209.92,53.38Z" transform="translate(-0.85 -16.61)"/><path d="M219.37,60.4c-2.32,0-3.77-1.45-3.77-5.87s1.63-5.87,3.81-5.87c2.34,0,3.77,1.47,3.77,5.87S221.56,60.4,219.37,60.4Zm0-10.31c-1.41,0-2.15,1-2.15,4.44S218,59,219.37,59s2.15-1,2.15-4.44S220.82,50.08,219.41,50.08Z" transform="translate(-0.85 -16.61)"/><path d="M230.68,60.18v-.93h-.09A3.4,3.4,0,0,1,228,60.4c-1.41,0-2.56-.74-2.56-3.32V48.94a11.29,11.29,0,0,1,1.56-.13v8.28c0,1.24.37,1.82,1.43,1.82a3.66,3.66,0,0,0,2.23-.87v-9.1a11.29,11.29,0,0,1,1.56-.13V60.18Z" transform="translate(-0.85 -16.61)"/><path d="M240.59,60.18V52c0-1.24-.39-1.82-1.45-1.82a3.66,3.66,0,0,0-2.23.87v9.16h-1.56V49a9.26,9.26,0,0,1,1.56-.13v1H237a3.44,3.44,0,0,1,2.6-1.15c1.39,0,2.56.74,2.56,3.32v8.21Z" transform="translate(-0.85 -16.61)"/><path d="M250,60.18v-.82h-.09a2.75,2.75,0,0,1-2.27,1c-1.91,0-3.23-1.39-3.23-5.7,0-4.68,1.75-6,4-6A3.7,3.7,0,0,1,250,49V44.21a9.26,9.26,0,0,1,1.56-.15V60.18Zm0-9.66a3,3,0,0,0-1.5-.41c-1.54,0-2.43.93-2.43,4.59,0,3.31.65,4.2,2,4.2a2.7,2.7,0,0,0,1.88-.76Z" transform="translate(-0.85 -16.61)"/><path d="M260.48,60.4a1.57,1.57,0,0,1-1.6-1h-.09a3.59,3.59,0,0,1-2.43,1c-1.47,0-2.49-1-2.49-3.12s1-3.23,3.05-3.34l1.75-.09V50.63a3.29,3.29,0,0,0-1.82-.52,4.2,4.2,0,0,0-2,.48,8.09,8.09,0,0,1-.17-1.52,6.11,6.11,0,0,1,2.23-.41,5,5,0,0,1,3.32,1.06v8.52c0,.46.13.56.52.56h.8v.43C261.54,60.05,261.1,60.4,260.48,60.4Zm-1.8-5.33-1.73.11c-1,.06-1.47.58-1.47,2.1,0,1.32.52,1.73,1.41,1.73a3,3,0,0,0,1.8-.69Z" transform="translate(-0.85 -16.61)"/><path d="M267.84,50.47a2.2,2.2,0,0,0-.74-.11,2.64,2.64,0,0,0-2,1v8.78h-1.56V49a9.26,9.26,0,0,1,1.56-.13V50h.09c.87-1.13,1.47-1.34,2.12-1.34a1.81,1.81,0,0,1,.67.11A15.31,15.31,0,0,1,267.84,50.47Z" transform="translate(-0.85 -16.61)"/><path d="M270.75,46.77a.94.94,0,0,1-1-1.06c0-.61.28-1.13,1-1.13s.93.52.93,1.13S271.44,46.77,270.75,46.77ZM270,60.18V48.87h1.56V60.18Z" transform="translate(-0.85 -16.61)"/><path d="M280.67,54.79h-5.14v.15c0,2.75.71,3.92,2.45,3.92a3.86,3.86,0,0,0,2.23-.72,8.31,8.31,0,0,1,.32,1.5,4.49,4.49,0,0,1-2.56.76c-2.62,0-4.12-1.45-4.12-5.72,0-4.62,1.67-6,3.64-6s3.21,1.21,3.21,4.46C280.71,53.59,280.69,54.27,280.67,54.79ZM277.51,50c-1.21,0-1.88,1-2,3.58h3.58c0-.3,0-.5,0-.72C279.15,50.82,278.66,50,277.51,50Z" transform="translate(-0.85 -16.61)"/><path d="M284.83,60.4a4.48,4.48,0,0,1-2.4-.67,8.82,8.82,0,0,1,.35-1.5,3.85,3.85,0,0,0,2.19.69c1,0,1.52-.61,1.52-1.67,0-2.47-3.88-2-3.88-5.22a3.17,3.17,0,0,1,3.27-3.38,5.81,5.81,0,0,1,1.93.33,6.51,6.51,0,0,1-.2,1.56,4.79,4.79,0,0,0-1.93-.41c-.93,0-1.47.56-1.47,1.69,0,2.12,3.9,1.69,3.9,5.29A3.07,3.07,0,0,1,284.83,60.4Z" transform="translate(-0.85 -16.61)"/></g></g></svg>